<svg xmlns="http://www.w3.org/2000/svg" xmlns:xlink="http://www.w3.org/1999/xlink" width="256" height="256" preserveAspectRatio="xMidYMid meet" version="1.1" viewBox="0 0 640 640"><defs><path id="e18DGZgk0y" d="M324.28 11.14C258.37 11.14 204.94 64.57 204.94 130.48C204.94 196.39 258.37 249.82 324.28 249.82C390.19 249.82 443.62 196.39 443.62 130.48C443.62 64.57 390.19 11.14 324.28 11.14Z"/><path id="a3YxCmGI" d="M324.28 11.14C258.37 11.14 204.94 64.57 204.94 130.48C204.94 196.39 258.37 249.82 324.28 249.82C390.19 249.82 443.62 196.39 443.62 130.48C443.62 64.57 390.19 11.14 324.28 11.14Z"/><path id="bp2R0W4h" d="M324.66 249.82C439.76 249.82 503.71 249.82 516.5 249.82C539.16 249.82 557.67 268.33 557.67 290.99C557.67 313.65 539.16 332.15 516.5 332.15C485.54 332.15 450.41 330.26 440.6 353.3C434.18 369.16 435.31 411.84 435.31 430.34C435.69 472.64 440.97 472.26 469.67 526.27C471.94 530.5 490.07 564.33 492.33 568.56C502.91 588.58 495.36 613.5 475.34 624.08C455.32 634.65 430.4 627.1 419.82 607.08C414.57 597.34 372.58 519.39 367.33 509.65C350.71 478.3 359.02 481.7 324.28 481.7C289.53 481.7 297.84 478.3 281.22 509.65C276.05 519.35 234.66 597 229.49 606.71C218.91 626.72 193.99 634.28 173.97 623.7C153.96 613.13 146.4 588.2 156.98 568.19C159.24 563.96 177.37 530.12 179.64 525.89C208.34 471.88 213.62 472.26 214 429.96C214 411.46 215.14 368.78 208.72 352.92C199.27 330.26 164.15 331.77 132.81 331.77C110.15 331.77 91.64 313.27 91.64 290.61C91.64 268.33 110.15 249.82 132.81 249.82C158.39 249.82 222.34 249.82 324.66 249.82Z"/><path id="cuW8pvBRP" d="M324.66 249.82C439.76 249.82 503.71 249.82 516.5 249.82C539.16 249.82 557.67 268.33 557.67 290.99C557.67 313.65 539.16 332.15 516.5 332.15C485.54 332.15 450.41 330.26 440.6 353.3C434.18 369.16 435.31 411.84 435.31 430.34C435.69 472.64 440.97 472.26 469.67 526.27C471.94 530.5 490.07 564.33 492.33 568.56C502.91 588.58 495.36 613.5 475.34 624.08C455.32 634.65 430.4 627.1 419.82 607.08C414.57 597.34 372.58 519.39 367.33 509.65C350.71 478.3 359.02 481.7 324.28 481.7C289.53 481.7 297.84 478.3 281.22 509.65C276.05 519.35 234.66 597 229.49 606.71C218.91 626.72 193.99 634.28 173.97 623.7C153.96 613.13 146.4 588.2 156.98 568.19C159.24 563.96 177.37 530.12 179.64 525.89C208.34 471.88 213.62 472.26 214 429.96C214 411.46 215.14 368.78 208.72 352.92C199.27 330.26 164.15 331.77 132.81 331.77C110.15 331.77 91.64 313.27 91.64 290.61C91.64 268.33 110.15 249.82 132.81 249.82C158.39 249.82 222.34 249.82 324.66 249.82Z"/><path id="eAyRq4dzH" d="M324.28 249.82C439.39 249.82 503.34 249.82 516.13 249.82C538.79 249.82 557.29 268.33 557.29 290.99C557.29 313.65 538.79 332.15 516.13 332.15C485.16 332.15 450.04 330.26 440.22 353.3C436.44 361.99 435.31 378.98 434.93 395.6C429.37 395.6 401.55 395.6 351.47 395.6L283.11 249.82L324.28 249.82Z"/><path id="a3RWJGOf5" d="M324.28 249.82C439.39 249.82 503.34 249.82 516.13 249.82C538.79 249.82 557.29 268.33 557.29 290.99C557.29 313.65 538.79 332.15 516.13 332.15C485.16 332.15 450.04 330.26 440.22 353.3C436.44 361.99 435.31 378.98 434.93 395.6C429.37 395.6 401.55 395.6 351.47 395.6L283.11 249.82L324.28 249.82Z"/><path id="b167fLbwp" d="M283.49 249.82L351.47 395.22C315.89 450.96 296.13 481.93 292.18 488.12C289.53 492.28 286.89 499.07 280.85 509.65C275.67 519.35 234.28 597 229.11 606.71C218.53 626.72 193.61 634.28 173.59 623.7C153.58 613.13 146.02 588.2 156.6 568.19C158.86 563.96 176.99 530.12 179.26 525.89C207.96 471.88 213.25 472.26 213.62 429.96C213.62 411.46 214.76 368.78 208.34 352.92C198.9 330.26 163.77 331.77 132.43 331.77C109.77 331.77 91.26 313.27 91.26 290.61C91.64 268.33 110.15 249.82 132.81 249.82C152.9 249.82 203.13 249.82 283.49 249.82Z"/><path id="bEovdKs0V" d="M283.49 249.82L351.47 395.22C315.89 450.96 296.13 481.93 292.18 488.12C289.53 492.28 286.89 499.07 280.85 509.65C275.67 519.35 234.28 597 229.11 606.71C218.53 626.72 193.61 634.28 173.59 623.7C153.58 613.13 146.02 588.2 156.6 568.19C158.86 563.96 176.99 530.12 179.26 525.89C207.96 471.88 213.25 472.26 213.62 429.96C213.62 411.46 214.76 368.78 208.34 352.92C198.9 330.26 163.77 331.77 132.43 331.77C109.77 331.77 91.26 313.27 91.26 290.61C91.64 268.33 110.15 249.82 132.81 249.82C152.9 249.82 203.13 249.82 283.49 249.82Z"/><path id="a2iPFeOKL" d="M167.93 280.41L92.77 181.09"/><path id="b18cdNzcx" d="M104.25 149.06C106.49 167.07 93.71 183.48 75.71 185.73C57.7 187.97 41.29 175.19 39.04 157.18C36.8 139.18 49.58 122.76 67.58 120.52C85.59 118.28 102.01 131.06 104.25 149.06Z"/><path id="bahYPiWuP" d="M104.25 149.06C106.49 167.07 93.71 183.48 75.71 185.73C57.7 187.97 41.29 175.19 39.04 157.18C36.8 139.18 49.58 122.76 67.58 120.52C85.59 118.28 102.01 131.06 104.25 149.06Z"/><path id="afnuymuqW" d="M324.28 330.26C291.95 330.26 265.74 356.47 265.74 388.8C265.74 421.13 291.95 447.34 324.28 447.34C356.61 447.34 382.81 421.13 382.81 388.8C382.81 356.47 356.61 330.26 324.28 330.26Z"/><path id="oEwfS8yUj" d="M324.28 330.26C291.95 330.26 265.74 356.47 265.74 388.8C265.74 421.13 291.95 447.34 324.28 447.34C356.61 447.34 382.81 421.13 382.81 388.8C382.81 356.47 356.61 330.26 324.28 330.26Z"/><path id="a2TkPucmVf" d="M383.19 338.19L356.38 366.14"/><path id="g19DwNBRue" d="M294.82 369.16L264.99 343.86"/><path id="eksfR7fXA" d="M320.12 283.06L284.62 296.27"/><path id="buH3QaGaC" d="M295.2 422.41L268.01 450.36"/><path id="c1s2vZt64" d="M479.49 280.79L531.61 193.17"/><path id="eiX2pJnVU" d="M553.72 138.23C569.04 143.05 577.54 159.38 572.72 174.7C567.89 190.02 551.56 198.53 536.24 193.7C520.92 188.87 512.42 172.54 517.24 157.22C522.07 141.91 538.4 133.4 553.72 138.23Z"/><path id="d307E705T" d="M553.72 138.23C569.04 143.05 577.54 159.38 572.72 174.7C567.89 190.02 551.56 198.53 536.24 193.7C520.92 188.87 512.42 172.54 517.24 157.22C522.07 141.91 538.4 133.4 553.72 138.23Z"/><path id="bzKGjSdj" d="M200.03 540.99L110.9 480.19"/><path id="a2jaB8ucVU" d="M108.51 439.24C119.9 451.72 119.01 471.07 106.53 482.46C94.05 493.84 74.7 492.96 63.32 480.48C51.93 468 52.82 448.65 65.3 437.26C77.78 425.87 97.12 426.76 108.51 439.24Z"/><path id="a22g71GHl2" d="M108.51 439.24C119.9 451.72 119.01 471.07 106.53 482.46C94.05 493.84 74.7 492.96 63.32 480.48C51.93 468 52.82 448.65 65.3 437.26C77.78 425.87 97.12 426.76 108.51 439.24Z"/><path id="cIHr2cJLZ" d="M297.84 119.91L258.94 119.91"/><path id="abxxFw74d" d="M353.36 138.04L389.61 101.78"/><path id="b5zErIkSm4" d="M353.36 101.78L389.61 138.04"/><path id="c1DbYLkfb5" d="M293.31 186.75L287.27 186.75"/><path id="g1lqVyXHu" d="M325.41 186.75L319.37 186.75"/><path id="bo0KAvmER" d="M357.51 186.75L351.47 186.75"/></defs><g><g><g><g><use fill="#fff" fill-opacity="1" opacity="1" xlink:href="#e18DGZgk0y"/><g><use fill-opacity="0" stroke="#000" stroke-opacity="0" stroke-width="1" opacity="1" xlink:href="#e18DGZgk0y"/></g></g><g><use fill="#000" fill-opacity="0" opacity="1" xlink:href="#a3YxCmGI"/><g><use fill-opacity="0" stroke="#000" stroke-opacity="1" stroke-width="5.67" opacity="1" xlink:href="#a3YxCmGI"/></g></g><g><use fill="#ffda46" fill-opacity="1" opacity="1" xlink:href="#bp2R0W4h"/><g><use fill-opacity="0" stroke="#000" stroke-opacity="0" stroke-width="1" opacity="1" xlink:href="#bp2R0W4h"/></g></g><g><use fill="#000" fill-opacity="0" opacity="1" xlink:href="#cuW8pvBRP"/><g><use fill-opacity="0" stroke="#000" stroke-opacity="1" stroke-width="5.67" opacity="1" xlink:href="#cuW8pvBRP"/></g></g><g><use fill="#e46146" fill-opacity="1" opacity="1" xlink:href="#eAyRq4dzH"/><g><use fill-opacity="0" stroke="#000" stroke-opacity="0" stroke-width="1" opacity="1" xlink:href="#eAyRq4dzH"/></g></g><g><use fill="#000" fill-opacity="0" opacity="1" xlink:href="#a3RWJGOf5"/><g><use fill-opacity="0" stroke="#000" stroke-opacity="1" stroke-width="5.67" opacity="1" xlink:href="#a3RWJGOf5"/></g></g><g><use fill="#40c769" fill-opacity="1" opacity="1" xlink:href="#b167fLbwp"/><g><use fill-opacity="0" stroke="#000" stroke-opacity="0" stroke-width="1" opacity="1" xlink:href="#b167fLbwp"/></g></g><g><use fill="#000" fill-opacity="0" opacity="1" xlink:href="#bEovdKs0V"/><g><use fill-opacity="0" stroke="#000" stroke-opacity="1" stroke-width="5.67" opacity="1" xlink:href="#bEovdKs0V"/></g></g><g><use fill="#000" fill-opacity="0" opacity="1" xlink:href="#a2iPFeOKL"/><g><use fill-opacity="0" stroke="#000" stroke-opacity="1" stroke-width="5.67" opacity="1" xlink:href="#a2iPFeOKL"/></g></g><g><use fill="#fc0" fill-opacity="1" opacity="1" xlink:href="#b18cdNzcx"/><g><use fill-opacity="0" stroke="#000" stroke-opacity="0" stroke-width="1" opacity="1" xlink:href="#b18cdNzcx"/></g></g><g><use fill="#000" fill-opacity="0" opacity="1" xlink:href="#bahYPiWuP"/><g><use fill-opacity="0" stroke="#000" stroke-opacity="1" stroke-width="5.67" opacity="1" xlink:href="#bahYPiWuP"/></g></g><g><use fill="#46cbff" fill-opacity="1" opacity="1" xlink:href="#afnuymuqW"/><g><use fill-opacity="0" stroke="#000" stroke-opacity="0" stroke-width="1" opacity="1" xlink:href="#afnuymuqW"/></g></g><g><use fill="#000" fill-opacity="0" opacity="1" xlink:href="#oEwfS8yUj"/><g><use fill-opacity="0" stroke="#000" stroke-opacity="1" stroke-width="5.67" opacity="1" xlink:href="#oEwfS8yUj"/></g></g><g><use fill="#000" fill-opacity="0" opacity="1" xlink:href="#a2TkPucmVf"/><g><use fill-opacity="0" stroke="#000" stroke-opacity="1" stroke-width="5.67" opacity="1" xlink:href="#a2TkPucmVf"/></g></g><g><use fill="#000" fill-opacity="0" opacity="1" xlink:href="#g19DwNBRue"/><g><use fill-opacity="0" stroke="#000" stroke-opacity="1" stroke-width="5.67" opacity="1" xlink:href="#g19DwNBRue"/></g></g><g><use fill="#000" fill-opacity="0" opacity="1" xlink:href="#eksfR7fXA"/><g><use fill-opacity="0" stroke="#000" stroke-opacity="1" stroke-width="5.67" opacity="1" xlink:href="#eksfR7fXA"/></g></g><g><use fill="#000" fill-opacity="0" opacity="1" xlink:href="#buH3QaGaC"/><g><use fill-opacity="0" stroke="#000" stroke-opacity="1" stroke-width="5.67" opacity="1" xlink:href="#buH3QaGaC"/></g></g><g><use fill="#000" fill-opacity="0" opacity="1" xlink:href="#c1s2vZt64"/><g><use fill-opacity="0" stroke="#000" stroke-opacity="1" stroke-width="5.67" opacity="1" xlink:href="#c1s2vZt64"/></g></g><g><use fill="#40c769" fill-opacity="1" opacity="1" xlink:href="#eiX2pJnVU"/><g><use fill-opacity="0" stroke="#000" stroke-opacity="0" stroke-width="1" opacity="1" xlink:href="#eiX2pJnVU"/></g></g><g><use fill="#000" fill-opacity="0" opacity="1" xlink:href="#d307E705T"/><g><use fill-opacity="0" stroke="#000" stroke-opacity="1" stroke-width="5.67" opacity="1" xlink:href="#d307E705T"/></g></g><g><use fill="#000" fill-opacity="0" opacity="1" xlink:href="#bzKGjSdj"/><g><use fill-opacity="0" stroke="#000" stroke-opacity="1" stroke-width="5.67" opacity="1" xlink:href="#bzKGjSdj"/></g></g><g><use fill="#46cbff" fill-opacity="1" opacity="1" xlink:href="#a2jaB8ucVU"/><g><use fill-opacity="0" stroke="#000" stroke-opacity="0" stroke-width="1" opacity="1" xlink:href="#a2jaB8ucVU"/></g></g><g><use fill="#000" fill-opacity="0" opacity="1" xlink:href="#a22g71GHl2"/><g><use fill-opacity="0" stroke="#000" stroke-opacity="1" stroke-width="5.67" opacity="1" xlink:href="#a22g71GHl2"/></g></g><g><use fill="#000" fill-opacity="0" opacity="1" xlink:href="#cIHr2cJLZ"/><g><use fill-opacity="0" stroke="#000" stroke-opacity="1" stroke-width="5.67" opacity="1" xlink:href="#cIHr2cJLZ"/></g></g><g><use fill="#000" fill-opacity="0" opacity="1" xlink:href="#abxxFw74d"/><g><use fill-opacity="0" stroke="#000" stroke-opacity="1" stroke-width="5.67" opacity="1" xlink:href="#abxxFw74d"/></g></g><g><use fill="#000" fill-opacity="0" opacity="1" xlink:href="#b5zErIkSm4"/><g><use fill-opacity="0" stroke="#000" stroke-opacity="1" stroke-width="5.67" opacity="1" xlink:href="#b5zErIkSm4"/></g></g><g><use fill="#000" fill-opacity="0" opacity="1" xlink:href="#c1DbYLkfb5"/><g><use fill-opacity="0" stroke="#000" stroke-opacity="1" stroke-width="5.67" opacity="1" xlink:href="#c1DbYLkfb5"/></g></g><g><use fill="#000" fill-opacity="0" opacity="1" xlink:href="#g1lqVyXHu"/><g><use fill-opacity="0" stroke="#000" stroke-opacity="1" stroke-width="5.67" opacity="1" xlink:href="#g1lqVyXHu"/></g></g><g><use fill="#000" fill-opacity="0" opacity="1" xlink:href="#bo0KAvmER"/><g><use fill-opacity="0" stroke="#000" stroke-opacity="1" stroke-width="5.67" opacity="1" xlink:href="#bo0KAvmER"/></g></g></g></g></g></svg>